<svg xmlns="http://www.w3.org/2000/svg" version="1.1" xmlns:xlink="http://www.w3.org/1999/xlink" xmlns:svgjs="http://svgjs.dev/svgjs" width="2000" height="732" viewBox="0 0 2000 732"><g transform="matrix(1,0,0,1,-1.2121212121212466,-1.2063608637933498)"><svg viewBox="0 0 396 145" data-background-color="#ffffff" preserveAspectRatio="xMidYMid meet" height="732" width="2000" xmlns="http://www.w3.org/2000/svg" xmlns:xlink="http://www.w3.org/1999/xlink"><g id="tight-bounds" transform="matrix(1,0,0,1,0.2400000000000091,0.23896492520496793)"><svg viewBox="0 0 395.52 144.52207014959006" height="144.52207014959006" width="395.52"><g><svg viewBox="0 0 395.52 144.52207014959006" height="144.52207014959006" width="395.52"><g><svg viewBox="0 0 672.2909439656374 245.65351679999995" height="144.52207014959006" width="395.52"><g transform="matrix(1,0,0,1,274.7933439656375,27.47028060375412)"><svg viewBox="0 0 397.4975999999999 190.7129555924917" height="190.7129555924917" width="397.4975999999999"><g id="textblocktransform"><svg viewBox="0 0 397.4975999999999 190.7129555924917" height="190.7129555924917" width="397.4975999999999" id="textblock"><g><rect width="397.4975999999999" height="11.131413977273557" x="0" y="136.54701618426844" fill="#02042d" opacity="1" stroke-width="0" stroke="transparent" fill-opacity="1" class="rect-yte-0" data-fill-palette-color="primary" rx="1%" id="yte-0" data-palette-color="#02042d"></rect></g><g transform="matrix(1,0,0,1,0.9887999999999693,0)"><svg viewBox="0 0 395.52 123.43409395973153" height="123.43409395973153" width="395.52"><g transform="matrix(1,0,0,1,0,0)"><svg width="395.52" viewBox="0.15 -33.2 119.19999999999999 37.2" height="123.43409395973153" data-palette-color="#02042d"><path d="M25.2-20.35L25.2-20.35Q30.1-20.35 30.1-18.5L30.1-18.5Q30.1-18.1 29.8-17.6L29.8-17.6Q28.6-15.75 25.45-15.75L25.45-15.75Q23.4-15.75 21.25-16.48 19.1-17.2 18-18L18-18Q13.35-16.65 9.73-13.85 6.1-11.05 4.3-7.5L4.3-7.5Q3.35-5.6 3.35-3.8L3.35-3.8Q3.35-1 5.68 0.75 8 2.5 12.5 2.5L12.5 2.5Q13.75 2.5 15.1 2.35L15.1 2.35Q23.05 1.5 27.75-2.75L27.75-2.75Q31.7-6.25 31.7-10.1L31.7-10.1Q31.7-13.15 28.75-13.15L28.75-13.15Q25.2-13.15 20.6-9.35L20.6-9.35Q19.45-8.4 18.65-6.95 17.85-5.5 17.85-4.1 17.85-2.7 19.25-2.35L19.25-2.35Q19.75-2.15 19.75-1.85L19.75-1.85Q19.75-1.35 18.75-1.45L18.75-1.45Q16.35-1.5 16.35-4.6 16.35-7.7 19.5-10.4L19.5-10.4Q23.8-14.1 28.6-14.1L28.6-14.1Q32.2-14.1 33.15-11.85L33.15-11.85Q33.55-10.8 33.55-9.75L33.55-9.75Q33.55-5.1 28.4-1L28.4-1Q22.25 4 12.8 4L12.8 4Q6.95 4 3.55 1.83 0.15-0.35 0.15-3.85L0.15-3.85Q0.15-5.9 1.45-7.95L1.45-7.95Q6.05-15.25 17.15-18.8L17.15-18.8Q15.5-20.7 15.5-22.85 15.5-25 16.55-26.45L16.55-26.45Q18.6-29.25 22.7-31.05L22.7-31.05Q27.6-33.2 32.5-33.2L32.5-33.2Q35.35-33.2 37.08-32.27 38.8-31.35 38.8-29.43 38.8-27.5 37.38-26.18 35.95-24.85 34.4-24.85 32.85-24.85 32.85-25.6L32.85-25.6Q32.85-26.05 33.5-26.05L33.5-26.05 34.5-25.9Q35.5-25.9 36.33-26.98 37.15-28.05 37.15-29.2L37.15-29.2Q37.15-30.9 35.2-31.7L35.2-31.7Q33.95-32.2 32.85-32.2 31.75-32.2 31.3-32.15L31.3-32.15Q27-31.9 22.9-29.15L22.9-29.15Q18.1-26 18.1-22.05L18.1-22.05Q18.1-20.6 19.1-19.35L19.1-19.35Q22.3-20.35 25.2-20.35ZM19.95-18.55L19.95-18.55Q22.1-16.85 24.9-16.85 27.7-16.85 27.7-18.4L27.7-18.4Q27.7-19.1 25.2-19.1 22.7-19.1 19.95-18.55ZM61.6-13.9L61.6-13.9Q58.6-13.9 56.55-15.28 54.5-16.65 54.5-18.75L54.5-18.75Q54.5-21.4 57.95-24.05L57.95-24.05Q58.55-24.5 58.85-24.5 59.15-24.5 59.15-24.3L59.15-24.3Q59.15-23.8 58.35-23.5L58.35-23.5Q55.55-21.25 55.55-18.95L55.55-18.95Q55.55-17.3 57.05-16.18 58.55-15.05 60.8-15.05L60.8-15.05Q65.7-15.05 70.05-19.75L70.05-19.75Q72.3-22.2 72.3-25.4 72.3-28.6 69.9-30.15L69.9-30.15Q67.9-31.55 64.5-31.55L64.5-31.55Q59.6-31.55 54.65-29.1L54.65-29.1Q48.55-26.15 43.62-19.93 38.7-13.7 38.7-7.95L38.7-7.95Q38.7-3.4 41.8-0.93 44.9 1.55 49.5 1.55L49.5 1.55Q54.75 1.55 59.8-1L59.8-1Q63.65-3 66.45-6.1L66.45-6.1Q67.25-7 67.7-7L67.7-7Q68-7 68-6.48 68-5.95 67.45-5.4L67.45-5.4Q64.8-2.6 59.8 0L59.8 0Q53.65 3.25 47.42 3.25 41.2 3.25 38.15-0.85L38.15-0.85Q36.1-3.55 36.1-7.3L36.1-7.3Q36.1-8.95 36.5-10.85L36.5-10.85Q37.85-17.25 43.6-23.3L43.6-23.3Q47.75-27.65 53.45-30.08 59.15-32.5 64.25-32.5L64.25-32.5Q66.95-32.5 68.95-31.85L68.95-31.85Q74.4-30.15 74.4-25L74.4-25Q74.4-21.85 72.55-19.55L72.55-19.55Q67.95-13.9 61.6-13.9ZM88.1 0.95L88.1 0.95Q85.95 0.95 85.95-0.55L85.95-0.55Q85.95-3.15 92.57-12.48 99.2-21.8 100.6-23.95L100.6-23.95Q103.65-28.65 103.65-30.35L103.65-30.35Q103.65-31.2 103-31.4L103-31.4Q101.8-31.9 100.2-31.9L100.2-31.9Q94.7-31.9 86.15-26.05L86.15-26.05Q80.55-22.15 76.87-16.93 73.2-11.7 73.2-8.3L73.2-8.3Q73.2-5.85 75.2-5.5L75.2-5.5Q76-5.35 76.8-5.35L76.8-5.35Q79.35-5.35 82.05-7L82.05-7Q83.4-7.8 85.45-9.65L85.45-9.65 86.35-9.95Q85.4-8.15 82.37-6.3 79.35-4.45 76.15-4.45L76.15-4.45Q75.4-4.45 74.4-4.65 73.4-4.85 72.47-6.08 71.55-7.3 71.55-9.3L71.55-9.3Q71.55-17.15 86.35-27.75L86.35-27.75Q89.35-29.9 93.45-31.48 97.55-33.05 100.9-33.05L100.9-33.05Q102.6-33.05 104.17-32.4 105.75-31.75 105.75-30.23 105.75-28.7 103.97-25.88 102.2-23.05 98.42-17.93 94.65-12.8 92.02-8.35 89.4-3.9 89.4-2.15L89.4-2.15Q89.4-1.3 90.1-1.3L90.1-1.3Q91.45-1.3 95.15-4.1L95.15-4.1Q103.95-10.8 115.85-25.85L115.85-25.85Q117.75-28.25 118.9-28.25L118.9-28.25Q119.35-28.25 119.35-27.8L119.35-27.8Q119.35-27.6 119.2-27.3L119.2-27.3Q119.25-27.15 119.25-27L119.25-27Q119.25-25.95 118.05-24.15L118.05-24.15 112.15-15.8Q108.55-10.6 105.8-5.95 103.05-1.3 103.25-0.5L103.25-0.5 104.15-0.8Q106.65-2.2 108.5-4.05L108.5-4.05Q109.15-4.55 109.3-4.55L109.3-4.55 109.4-4.45Q109.4-4 108.05-2.55L108.05-2.55Q104.55 0.5 103.05 0.5 101.55 0.5 101.55-0.45 101.55-1.4 104.22-6.35 106.9-11.3 112.8-20L112.8-20Q111.8-18.8 109.65-16.45L109.65-16.45Q97.35-3.85 94.9-1.9L94.9-1.9Q91.25 0.95 88.1 0.95Z" opacity="1" transform="matrix(1,0,0,1,0,0)" fill="#02042d" class="wordmark-text-0" data-fill-palette-color="primary" id="text-0"></path></svg></g></svg></g><g transform="matrix(1,0,0,1,0,160.7913523860789)"><svg viewBox="0 0 395.52 29.921603206412826" height="29.921603206412826" width="395.52"><g transform="matrix(1,0,0,1,0,0)"><svg width="395.52" viewBox="1.15 -37.35 498.95000000000005 37.75" height="29.921603206412826" data-palette-color="#02042d"><path d="M28.1 0L4.95 0 4.95-36.35 28.1-36.35 28.1-30.35 12.7-30.35 12.7-21.15 24.3-21.15 24.3-15.4 12.7-15.4 12.7-5.95 28.1-5.95 28.1 0ZM28.1-5.95L22.95-4.85 23.7-8.6Q23.85-9.4 24.25-9.85 24.65-10.3 25.4-10.3L25.4-10.3 28.1-10.3 28.1-5.95ZM23.7-27.7L22.95-31.5 28.1-30.35 28.1-26 25.4-26Q24.65-26 24.25-26.45 23.85-26.9 23.7-27.7L23.7-27.7ZM1.15-36.35L6.1-36.35 5.4-30.85 2.9-31.35Q2.1-31.55 1.63-31.93 1.15-32.3 1.15-33.1L1.15-33.1 1.15-36.35ZM6.05 0L1.15 0 1.15-3.25Q1.15-4 1.6-4.4 2.05-4.8 2.85-4.95L2.85-4.95 5.35-5.5 6.05 0ZM42.1 0L35 0 35-25.85 39.35-25.85Q40.75-25.85 41.15-24.6L41.15-24.6 41.55-22.95Q42.9-24.35 44.52-25.3 46.15-26.25 48.3-26.25L48.3-26.25Q50.7-26.25 52.25-24.98 53.8-23.7 54.6-21.6L54.6-21.6Q55.8-24 58.1-25.13 60.4-26.25 62.85-26.25L62.85-26.25Q67.25-26.25 69.57-23.63 71.9-21 71.9-16.45L71.9-16.45 71.9 0 64.85 0 64.85-16.45Q64.85-18.6 63.9-19.73 62.95-20.85 61.05-20.85L61.05-20.85Q59.35-20.85 58.17-19.7 57-18.55 57-16.45L57-16.45 57 0 49.95 0 49.95-16.45Q49.95-18.8 49-19.83 48.05-20.85 46.25-20.85L46.25-20.85Q45.05-20.85 44.02-20.3 43-19.75 42.1-18.8L42.1-18.8 42.1 0ZM36.1 0L31.2 0 31.2-3.25Q31.2-4 31.67-4.4 32.15-4.8 32.95-4.95L32.95-4.95 35.45-5.5 36.1 0ZM45.9 0L41 0 41.65-5.5 44.15-4.95Q44.95-4.8 45.42-4.4 45.9-4 45.9-3.25L45.9-3.25 45.9 0ZM60.8 0L55.9 0 56.6-5.5 59.1-4.95Q59.9-4.8 60.35-4.4 60.8-4 60.8-3.25L60.8-3.25 60.8 0ZM31.2-25.85L36.1-25.85 35.45-20.35 32.95-20.85Q32.15-21.05 31.67-21.43 31.2-21.8 31.2-22.6L31.2-22.6 31.2-25.85ZM75.7 0L70.8 0 71.45-5.5 74-4.95Q74.8-4.8 75.25-4.4 75.7-4 75.7-3.25L75.7-3.25 75.7 0ZM91.35 0.4L91.35 0.4Q89.85 0.4 88 0.28 86.15 0.15 84.22-0.15 82.3-0.45 80.65-1L80.65-1 80.65-37.35 87.7-37.35 87.7-22.9Q89.15-24.35 91.05-25.3 92.95-26.25 95.45-26.25L95.45-26.25Q98.4-26.25 100.52-24.58 102.65-22.9 103.75-19.98 104.85-17.05 104.85-13.2L104.85-13.2Q104.85-9.35 103.52-6.28 102.2-3.2 99.25-1.4 96.3 0.4 91.35 0.4ZM92-4.85L92-4.85Q93.9-4.85 95.12-5.78 96.35-6.7 96.97-8.58 97.6-10.45 97.6-13.15L97.6-13.15Q97.6-16.95 96.5-18.9 95.4-20.85 93-20.85L93-20.85Q91.2-20.85 90-20.18 88.8-19.5 87.7-18.1L87.7-18.1 87.7-5.35Q89.1-5 90-4.93 90.9-4.85 92-4.85ZM76.85-37.35L81.75-37.35 81.05-31.85 78.55-32.35Q77.75-32.55 77.3-32.93 76.85-33.3 76.85-34.1L76.85-34.1 76.85-37.35ZM120.04 0.4L120.04 0.4Q116.09 0.4 113.19-1.35 110.29-3.1 108.69-6.23 107.09-9.35 107.09-13.5L107.09-13.5Q107.09-17.05 108.67-19.95 110.24-22.85 113.09-24.55 115.94-26.25 119.69-26.25L119.69-26.25Q123.14-26.25 125.69-24.8 128.24-23.35 129.67-20.73 131.09-18.1 131.09-14.45L131.09-14.45Q131.09-13 130.82-12.4 130.54-11.8 129.49-11.8L129.49-11.8 114.14-11.8Q114.14-11.65 114.17-11.53 114.19-11.4 114.24-11.25L114.24-11.25Q114.69-8.05 116.34-6.5 117.99-4.95 120.64-4.95L120.64-4.95Q121.94-4.95 123.22-5.48 124.49-6 125.64-6.55 126.79-7.1 127.59-7.1L127.59-7.1Q128.34-7.1 128.89-6.5L128.89-6.5 130.94-3.95Q129.49-2.3 127.67-1.35 125.84-0.4 123.89 0 121.94 0.4 120.04 0.4ZM114.24-15.95L114.24-15.95 124.79-15.95Q124.79-18.2 123.57-19.75 122.34-21.3 119.84-21.3L119.84-21.3Q117.44-21.3 116.07-19.9 114.69-18.5 114.24-15.95ZM142.79 0.4L142.79 0.4Q139.89 0.4 137.77-1.28 135.64-2.95 134.49-5.95 133.34-8.95 133.34-12.85L133.34-12.85Q133.34-16.6 134.69-19.65 136.04-22.7 138.54-24.5 141.04-26.3 144.39-26.3L144.39-26.3Q146.49-26.3 147.94-25.68 149.39-25.05 150.54-24L150.54-24 150.54-37.35 157.59-37.35 157.59 0 153.24 0Q151.84 0 151.49-1.25L151.49-1.25 150.94-3.45Q149.39-1.7 147.37-0.65 145.34 0.4 142.79 0.4ZM145.24-5.05L145.24-5.05Q146.99-5.05 148.24-5.78 149.49-6.5 150.54-7.8L150.54-7.8 150.54-19.05Q149.54-20.15 148.47-20.6 147.39-21.05 146.09-21.05L146.09-21.05Q144.34-21.05 143.12-20.13 141.89-19.2 141.27-17.35 140.64-15.5 140.64-12.85L140.64-12.85Q140.64-9.05 141.77-7.05 142.89-5.05 145.24-5.05ZM146.74-37.35L151.64-37.35 150.99-31.85 148.44-32.35Q147.64-32.55 147.19-32.93 146.74-33.3 146.74-34.1L146.74-34.1 146.74-37.35ZM161.39 0L156.49 0 157.14-5.5 159.69-4.95Q160.49-4.8 160.94-4.4 161.39-4 161.39-3.25L161.39-3.25 161.39 0ZM172.94 0.4L172.94 0.4Q170.04 0.4 167.91-1.28 165.79-2.95 164.64-5.95 163.49-8.95 163.49-12.85L163.49-12.85Q163.49-16.6 164.84-19.65 166.19-22.7 168.69-24.5 171.19-26.3 174.54-26.3L174.54-26.3Q176.64-26.3 178.09-25.68 179.54-25.05 180.69-24L180.69-24 180.69-37.35 187.74-37.35 187.74 0 183.39 0Q181.99 0 181.64-1.25L181.64-1.25 181.09-3.45Q179.54-1.7 177.51-0.65 175.49 0.4 172.94 0.4ZM175.39-5.05L175.39-5.05Q177.14-5.05 178.39-5.78 179.64-6.5 180.69-7.8L180.69-7.8 180.69-19.05Q179.69-20.15 178.61-20.6 177.54-21.05 176.24-21.05L176.24-21.05Q174.49-21.05 173.26-20.13 172.04-19.2 171.41-17.35 170.79-15.5 170.79-12.85L170.79-12.85Q170.79-9.05 171.91-7.05 173.04-5.05 175.39-5.05ZM176.89-37.35L181.79-37.35 181.14-31.85 178.59-32.35Q177.79-32.55 177.34-32.93 176.89-33.3 176.89-34.1L176.89-34.1 176.89-37.35ZM191.54 0L186.64 0 187.29-5.5 189.84-4.95Q190.64-4.8 191.09-4.4 191.54-4 191.54-3.25L191.54-3.25 191.54 0ZM206.59 0.4L206.59 0.4Q202.64 0.4 199.74-1.35 196.84-3.1 195.24-6.23 193.64-9.35 193.64-13.5L193.64-13.5Q193.64-17.05 195.21-19.95 196.79-22.85 199.64-24.55 202.49-26.25 206.24-26.25L206.24-26.25Q209.69-26.25 212.24-24.8 214.79-23.35 216.21-20.73 217.64-18.1 217.64-14.45L217.64-14.45Q217.64-13 217.36-12.4 217.09-11.8 216.04-11.8L216.04-11.8 200.69-11.8Q200.69-11.65 200.71-11.53 200.74-11.4 200.79-11.25L200.79-11.25Q201.24-8.05 202.89-6.5 204.54-4.95 207.19-4.95L207.19-4.95Q208.49-4.95 209.76-5.48 211.04-6 212.19-6.55 213.34-7.1 214.14-7.1L214.14-7.1Q214.89-7.1 215.44-6.5L215.44-6.5 217.49-3.95Q216.04-2.3 214.21-1.35 212.39-0.4 210.44 0 208.49 0.4 206.59 0.4ZM200.79-15.95L200.79-15.95 211.34-15.95Q211.34-18.2 210.11-19.75 208.89-21.3 206.39-21.3L206.39-21.3Q203.99-21.3 202.61-19.9 201.24-18.5 200.79-15.95ZM229.33 0.4L229.33 0.4Q226.43 0.4 224.31-1.28 222.18-2.95 221.03-5.95 219.88-8.95 219.88-12.85L219.88-12.85Q219.88-16.6 221.23-19.65 222.58-22.7 225.08-24.5 227.58-26.3 230.93-26.3L230.93-26.3Q233.03-26.3 234.48-25.68 235.93-25.05 237.08-24L237.08-24 237.08-37.35 244.13-37.35 244.13 0 239.78 0Q238.38 0 238.03-1.25L238.03-1.25 237.48-3.45Q235.93-1.7 233.91-0.65 231.88 0.4 229.33 0.4ZM231.78-5.05L231.78-5.05Q233.53-5.05 234.78-5.78 236.03-6.5 237.08-7.8L237.08-7.8 237.08-19.05Q236.08-20.15 235.01-20.6 233.93-21.05 232.63-21.05L232.63-21.05Q230.88-21.05 229.66-20.13 228.43-19.2 227.81-17.35 227.18-15.5 227.18-12.85L227.18-12.85Q227.18-9.05 228.31-7.05 229.43-5.05 231.78-5.05ZM233.28-37.35L238.18-37.35 237.53-31.85 234.98-32.35Q234.18-32.55 233.73-32.93 233.28-33.3 233.28-34.1L233.28-34.1 233.28-37.35ZM247.93 0L243.03 0 243.68-5.5 246.23-4.95Q247.03-4.8 247.48-4.4 247.93-4 247.93-3.25L247.93-3.25 247.93 0ZM279.63 0.4L279.63 0.4Q275.43 0.4 272.15-1 268.88-2.4 266.68-4.75L266.68-4.75Q264.38-7.25 263.1-10.68 261.83-14.1 261.83-18.05L261.83-18.05Q261.83-22.2 263.2-25.63 264.58-29.05 267.08-31.5L267.08-31.5Q269.58-34 273.13-35.38 276.68-36.75 280.73-36.75L280.73-36.75Q283.08-36.75 285.18-36.33 287.28-35.9 289.05-35.25 290.83-34.6 292.28-33.9L292.28-33.9 292.28-29.1 288.93-28.6Q287.43-29.45 285.23-29.88 283.03-30.3 281.08-30.3L281.08-30.3Q277.48-30.3 274.93-28.78 272.38-27.25 271.05-24.53 269.73-21.8 269.73-18.15L269.73-18.15Q269.73-14.6 270.98-11.85 272.23-9.1 274.63-7.55 277.03-6 280.43-6L280.43-6Q282.33-6 284.05-6.58 285.78-7.15 287.33-8.5L287.33-8.5Q287.58-8.7 287.9-8.85 288.23-9 288.58-9L288.58-9Q289.18-9 289.68-8.55L289.68-8.55 292.73-5.3Q290.53-2.55 287.23-1.07 283.93 0.4 279.63 0.4ZM287.83-26.5L287.08-30.25 292.28-29.1 292.28-24.75 289.58-24.75Q288.83-24.75 288.43-25.2 288.03-25.65 287.83-26.5L287.83-26.5ZM326.47 0.4L326.47 0.4Q321.82 0.4 318.37-1.5 314.92-3.4 313.02-6.8 311.12-10.2 311.12-14.7L311.12-14.7 311.12-36.35 318.82-36.35 318.82-14.75Q318.82-12.1 319.72-10.18 320.62-8.25 322.35-7.18 324.07-6.1 326.47-6.1L326.47-6.1Q328.97-6.1 330.67-7.15 332.37-8.2 333.25-10.13 334.12-12.05 334.12-14.7L334.12-14.7 334.12-36.35 341.82-36.35 341.82-14.7Q341.82-10.1 339.92-6.73 338.02-3.35 334.55-1.48 331.07 0.4 326.47 0.4ZM307.32-36.35L312.22-36.35 311.52-30.85 309.02-31.35Q308.22-31.55 307.77-31.93 307.32-32.3 307.32-33.1L307.32-33.1 307.32-36.35ZM317.72-36.35L322.62-36.35 322.62-33.1Q322.62-32.3 322.17-31.93 321.72-31.55 320.92-31.35L320.92-31.35 318.37-30.85 317.72-36.35ZM330.32-36.35L335.22-36.35 334.57-30.85 332.07-31.35Q331.27-31.55 330.8-31.93 330.32-32.3 330.32-33.1L330.32-33.1 330.32-36.35ZM340.72-36.35L345.67-36.35 345.67-33.1Q345.67-32.3 345.2-31.93 344.72-31.55 343.92-31.35L343.92-31.35 341.42-30.85 340.72-36.35ZM358.17 0.4L358.17 0.4Q354.62 0.4 352.72-1.58 350.82-3.55 350.82-6.95L350.82-6.95 350.82-20.8 348.47-20.8Q347.92-20.8 347.52-21.15 347.12-21.5 347.12-22.2L347.12-22.2 347.12-25 351.27-25.75 352.67-32.35Q352.92-33.45 354.22-33.45L354.22-33.45 357.92-33.45 357.92-25.7 364.42-25.7 364.42-20.8 357.92-20.8 357.92-7.45Q357.92-6.4 358.42-5.78 358.92-5.15 359.82-5.15L359.82-5.15Q360.37-5.15 360.77-5.33 361.17-5.5 361.47-5.68 361.77-5.85 362.12-5.85L362.12-5.85Q362.62-5.85 363.02-5.25L363.02-5.25 365.17-1.85Q363.72-0.75 361.9-0.18 360.07 0.4 358.17 0.4ZM378.27 0L371.17 0 371.17-25.85 378.27-25.85 378.27 0ZM372.27 0L367.37 0 367.37-3.25Q367.37-4 367.84-4.4 368.32-4.8 369.12-4.95L369.12-4.95 371.62-5.5 372.27 0ZM382.07 0L377.17 0 377.82-5.5 380.32-4.95Q381.12-4.8 381.59-4.4 382.07-4 382.07-3.25L382.07-3.25 382.07 0ZM367.37-25.85L372.27-25.85 371.62-20.35 369.12-20.85Q368.32-21.05 367.84-21.43 367.37-21.8 367.37-22.6L367.37-22.6 367.37-25.85ZM374.82-28.9L374.82-28.9Q373.12-28.9 371.82-30.15 370.52-31.4 370.52-33.1L370.52-33.1Q370.52-34.9 371.82-36.13 373.12-37.35 374.82-37.35L374.82-37.35Q376.62-37.35 377.94-36.13 379.27-34.9 379.27-33.1L379.27-33.1Q379.27-31.4 377.94-30.15 376.62-28.9 374.82-28.9ZM395.17 0L388.07 0 388.07-37.35 395.17-37.35 395.17 0ZM389.17 0L384.27 0 384.27-3.25Q384.27-4 384.74-4.4 385.22-4.8 386.02-4.95L386.02-4.95 388.52-5.5 389.17 0ZM398.97 0L394.07 0 394.72-5.5 397.22-4.95Q398.02-4.8 398.49-4.4 398.97-4 398.97-3.25L398.97-3.25 398.97 0ZM384.27-37.35L389.17-37.35 388.52-31.85 386.02-32.35Q385.22-32.55 384.74-32.93 384.27-33.3 384.27-34.1L384.27-34.1 384.27-37.35ZM412.11 0L405.01 0 405.01-25.85 412.11-25.85 412.11 0ZM406.11 0L401.21 0 401.21-3.25Q401.21-4 401.69-4.4 402.16-4.8 402.96-4.95L402.96-4.95 405.46-5.5 406.11 0ZM415.91 0L411.01 0 411.66-5.5 414.16-4.95Q414.96-4.8 415.44-4.4 415.91-4 415.91-3.25L415.91-3.25 415.91 0ZM401.21-25.85L406.11-25.85 405.46-20.35 402.96-20.85Q402.16-21.05 401.69-21.43 401.21-21.8 401.21-22.6L401.21-22.6 401.21-25.85ZM408.66-28.9L408.66-28.9Q406.96-28.9 405.66-30.15 404.36-31.4 404.36-33.1L404.36-33.1Q404.36-34.9 405.66-36.13 406.96-37.35 408.66-37.35L408.66-37.35Q410.46-37.35 411.79-36.13 413.11-34.9 413.11-33.1L413.11-33.1Q413.11-31.4 411.79-30.15 410.46-28.9 408.66-28.9ZM428.36 0.4L428.36 0.4Q424.81 0.4 422.91-1.58 421.01-3.55 421.01-6.95L421.01-6.95 421.01-20.8 418.66-20.8Q418.11-20.8 417.71-21.15 417.31-21.5 417.31-22.2L417.31-22.2 417.31-25 421.46-25.75 422.86-32.35Q423.11-33.45 424.41-33.45L424.41-33.45 428.11-33.45 428.11-25.7 434.61-25.7 434.61-20.8 428.11-20.8 428.11-7.45Q428.11-6.4 428.61-5.78 429.11-5.15 430.01-5.15L430.01-5.15Q430.56-5.15 430.96-5.33 431.36-5.5 431.66-5.68 431.96-5.85 432.31-5.85L432.31-5.85Q432.81-5.85 433.21-5.25L433.21-5.25 435.36-1.85Q433.91-0.75 432.08-0.18 430.26 0.4 428.36 0.4ZM448.46 0L441.36 0 441.36-25.85 448.46-25.85 448.46 0ZM442.46 0L437.56 0 437.56-3.25Q437.56-4 438.03-4.4 438.51-4.8 439.31-4.95L439.31-4.95 441.81-5.5 442.46 0ZM452.26 0L447.36 0 448.01-5.5 450.51-4.95Q451.31-4.8 451.78-4.4 452.26-4 452.26-3.25L452.26-3.25 452.26 0ZM437.56-25.85L442.46-25.85 441.81-20.35 439.31-20.85Q438.51-21.05 438.03-21.43 437.56-21.8 437.56-22.6L437.56-22.6 437.56-25.85ZM445.01-28.9L445.01-28.9Q443.31-28.9 442.01-30.15 440.71-31.4 440.71-33.1L440.71-33.1Q440.71-34.9 442.01-36.13 443.31-37.35 445.01-37.35L445.01-37.35Q446.81-37.35 448.13-36.13 449.46-34.9 449.46-33.1L449.46-33.1Q449.46-31.4 448.13-30.15 446.81-28.9 445.01-28.9ZM467.2 0.4L467.2 0.4Q463.25 0.4 460.35-1.35 457.45-3.1 455.85-6.23 454.25-9.35 454.25-13.5L454.25-13.5Q454.25-17.05 455.83-19.95 457.4-22.85 460.25-24.55 463.1-26.25 466.85-26.25L466.85-26.25Q470.3-26.25 472.85-24.8 475.4-23.35 476.83-20.73 478.25-18.1 478.25-14.45L478.25-14.45Q478.25-13 477.98-12.4 477.7-11.8 476.65-11.8L476.65-11.8 461.3-11.8Q461.3-11.65 461.33-11.53 461.35-11.4 461.4-11.25L461.4-11.25Q461.85-8.05 463.5-6.5 465.15-4.95 467.8-4.95L467.8-4.95Q469.1-4.95 470.38-5.48 471.65-6 472.8-6.55 473.95-7.1 474.75-7.1L474.75-7.1Q475.5-7.1 476.05-6.5L476.05-6.5 478.1-3.95Q476.65-2.3 474.83-1.35 473-0.4 471.05 0 469.1 0.4 467.2 0.4ZM461.4-15.95L461.4-15.95 471.95-15.95Q471.95-18.2 470.73-19.75 469.5-21.3 467-21.3L467-21.3Q464.6-21.3 463.23-19.9 461.85-18.5 461.4-15.95ZM489.5 0.4L489.5 0.4Q487.1 0.4 484.93 0 482.75-0.4 481.1-0.95L481.1-0.95 481.1-5.35 484.4-5.7Q484.95-5.2 486.55-4.8 488.15-4.4 489.75-4.4L489.75-4.4Q491.65-4.4 492.58-5.13 493.5-5.85 493.5-7.05L493.5-7.05Q493.5-8.2 492.55-8.83 491.6-9.45 490.2-9.88 488.8-10.3 487.4-10.8L487.4-10.8Q485.65-11.4 484.23-12.28 482.8-13.15 482-14.58 481.2-16 481.2-18.15L481.2-18.15Q481.2-20.55 482.43-22.35 483.65-24.15 485.9-25.2 488.15-26.25 491.15-26.25L491.15-26.25Q493.55-26.25 495.4-25.6 497.25-24.95 498.95-24.05L498.95-24.05 498.95-20.85 495.55-20.2Q494.7-20.5 493.7-20.85 492.7-21.2 491.35-21.2L491.35-21.2Q490.3-21.2 489.5-20.93 488.7-20.65 488.3-20.1 487.9-19.55 487.9-18.75L487.9-18.75Q487.9-17.75 488.88-17.1 489.85-16.45 491.3-16.03 492.75-15.6 494.05-15.1L494.05-15.1Q495.7-14.5 497.08-13.7 498.45-12.9 499.28-11.6 500.1-10.3 500.1-8.25L500.1-8.25Q500.1-5.6 498.83-3.68 497.55-1.75 495.18-0.68 492.8 0.4 489.5 0.4ZM494.65-18.9L494-22.35 498.95-21.1 498.95-17.2 496.4-17.2Q495.6-17.2 495.2-17.65 494.8-18.1 494.65-18.9L494.65-18.9ZM485.4-6.8L486.05-3.35 481.1-4.6 481.1-8.5 483.65-8.5Q484.45-8.5 484.83-8.05 485.2-7.6 485.4-6.8L485.4-6.8Z" opacity="1" transform="matrix(1,0,0,1,0,0)" fill="#02042d" class="slogan-text-1" data-fill-palette-color="secondary" id="text-1"></path></svg></g></svg></g></svg></g></svg></g><g><svg viewBox="0 0 245.65351679999995 245.65351679999995" height="245.65351679999995" width="245.65351679999995"><g><svg xmlns="http://www.w3.org/2000/svg" xmlns:xlink="http://www.w3.org/1999/xlink" version="1.1" x="0" y="0" viewBox="1 1 64 64" enable-background="new 0 0 66 66" xml:space="preserve" height="245.65351679999995" width="245.65351679999995" class="icon-icon-0" data-fill-palette-color="accent" id="icon-0"><g fill="#070fa2" data-fill-palette-color="accent"><g fill="#070fa2" data-fill-palette-color="accent"><path d="M41.1 8.3V13.8C41.1 14.4 41.5 14.8 42.1 14.8S43.1 14.4 43.1 13.8V8.3C44.7 7.9 45.8 6.4 45.8 4.7 45.8 2.6 44.1 1 42.1 1 40 1 38.4 2.7 38.4 4.7 38.3 6.5 39.5 7.9 41.1 8.3M42.1 3C43.1 3 43.8 3.8 43.8 4.7 43.8 5.7 43 6.4 42.1 6.4 41.1 6.4 40.4 5.6 40.4 4.7 40.3 3.8 41.1 3 42.1 3" fill="#070fa2" data-fill-palette-color="accent"></path></g><g fill="#070fa2" data-fill-palette-color="accent"><path d="M23.9 11.2C25.6 11.2 27 10 27.5 8.5H31.4V13.8C31.4 14.4 31.8 14.8 32.4 14.8S33.4 14.4 33.4 13.8V7.5C33.4 6.9 33 6.5 32.4 6.5H27.5C27.1 4.9 25.6 3.8 23.9 3.8 21.8 3.8 20.2 5.5 20.2 7.5S21.9 11.2 23.9 11.2M23.9 5.7C24.9 5.7 25.6 6.5 25.6 7.4 25.6 8.4 24.8 9.1 23.9 9.1 22.9 9.1 22.2 8.3 22.2 7.4S23 5.7 23.9 5.7" fill="#070fa2" data-fill-palette-color="accent"></path></g><g fill="#070fa2" data-fill-palette-color="accent"><path d="M24.9 57.7V52.2C24.9 51.6 24.5 51.2 23.9 51.2S22.9 51.6 22.9 52.2V57.7C21.3 58.1 20.2 59.6 20.2 61.3 20.2 63.4 21.9 65 23.9 65 26 65 27.6 63.3 27.6 61.3 27.7 59.5 26.5 58.1 24.9 57.7M23.9 63C22.9 63 22.2 62.2 22.2 61.3S23 59.6 23.9 59.6C24.9 59.6 25.6 60.4 25.6 61.3S24.9 63 23.9 63" fill="#070fa2" data-fill-palette-color="accent"></path></g><g fill="#070fa2" data-fill-palette-color="accent"><path d="M42.1 54.8C40.4 54.8 39 56 38.5 57.5H34.6V52.2C34.6 51.6 34.2 51.2 33.6 51.2S32.6 51.6 32.6 52.2V58.5C32.6 59.1 33 59.5 33.6 59.5H38.5C38.9 61.1 40.4 62.2 42.1 62.2 44.2 62.2 45.8 60.5 45.8 58.5S44.1 54.8 42.1 54.8M42.1 60.3C41.1 60.3 40.4 59.5 40.4 58.6 40.4 57.6 41.2 56.9 42.1 56.9 43.1 56.9 43.8 57.7 43.8 58.6S43 60.3 42.1 60.3" fill="#070fa2" data-fill-palette-color="accent"></path></g><g fill="#070fa2" data-fill-palette-color="accent"><path d="M13.8 22.9H8.3C7.9 21.3 6.4 20.2 4.7 20.2 2.6 20.2 1 21.9 1 23.9 1 26 2.7 27.6 4.7 27.6 6.4 27.6 7.8 26.4 8.3 24.9H13.8C14.4 24.9 14.8 24.5 14.8 23.9 14.8 23.4 14.4 22.9 13.8 22.9M4.7 25.7C3.7 25.7 3 24.9 3 24 3 23 3.8 22.3 4.7 22.3 5.7 22.3 6.4 23.1 6.4 24 6.5 24.9 5.7 25.7 4.7 25.7" fill="#070fa2" data-fill-palette-color="accent"></path></g><g fill="#070fa2" data-fill-palette-color="accent"><path d="M13.8 32.5H7.5C6.9 32.5 6.5 32.9 6.5 33.5V38.4C4.9 38.8 3.8 40.3 3.8 42 3.8 44.1 5.5 45.7 7.5 45.7 9.6 45.7 11.2 44 11.2 42 11.2 40.3 10 38.9 8.5 38.4V34.5H13.8C14.4 34.5 14.8 34.1 14.8 33.5 14.8 33 14.4 32.5 13.8 32.5M9.2 42.1C9.2 43.1 8.4 43.8 7.5 43.8 6.5 43.8 5.8 43 5.8 42.1 5.8 41.1 6.6 40.4 7.5 40.4 8.4 40.3 9.2 41.1 9.2 42.1" fill="#070fa2" data-fill-palette-color="accent"></path></g><g fill="#070fa2" data-fill-palette-color="accent"><path d="M61.3 38.3C59.6 38.3 58.2 39.5 57.7 41H52.2C51.6 41 51.2 41.4 51.2 42S51.6 43 52.2 43H57.7C58.1 44.6 59.6 45.7 61.3 45.7 63.4 45.7 65 44 65 42S63.3 38.3 61.3 38.3M61.3 43.8C60.3 43.8 59.6 43 59.6 42.1 59.6 41.1 60.4 40.4 61.3 40.4 62.3 40.4 63 41.2 63 42.1S62.2 43.8 61.3 43.8" fill="#070fa2" data-fill-palette-color="accent"></path></g><g fill="#070fa2" data-fill-palette-color="accent"><path d="M52.2 33.5H58.5C59.1 33.5 59.5 33.1 59.5 32.5V27.6C61.1 27.2 62.2 25.7 62.2 24 62.2 21.9 60.5 20.3 58.5 20.3 56.4 20.3 54.8 22 54.8 24 54.8 25.7 56 27.1 57.5 27.6V31.5H52.2C51.6 31.5 51.2 31.9 51.2 32.5 51.2 33 51.6 33.5 52.2 33.5M56.8 23.9C56.8 22.9 57.6 22.2 58.5 22.2 59.5 22.2 60.2 23 60.2 23.9 60.2 24.9 59.4 25.6 58.5 25.6 57.6 25.7 56.8 24.9 56.8 23.9" fill="#070fa2" data-fill-palette-color="accent"></path></g><g fill="#070fa2" data-fill-palette-color="accent"><path d="M39.6 25.7H26.4C26 25.7 25.6 26 25.6 26.5V39.7C25.6 40.1 25.9 40.5 26.4 40.5H39.6C40 40.5 40.4 40.2 40.4 39.7V26.5C40.4 26 40 25.7 39.6 25.7" fill="#070fa2" data-fill-palette-color="accent"></path></g><g fill="#070fa2" data-fill-palette-color="accent"><path d="M49 25.3C49.6 25.3 50 24.9 50 24.3 50 23.8 49.6 23.3 49 23.3H46.6V23.1C46.6 21.1 44.9 19.4 42.9 19.4H42.7V17C42.7 16.5 42.3 16 41.7 16 41.2 16 40.7 16.5 40.7 17V19.4H38.3V17C38.3 16.5 37.8 16 37.3 16 36.7 16 36.3 16.5 36.3 17V19.4H34V17C34 16.5 33.5 16 33 16S32 16.5 32 17V19.4H29.6V17C29.6 16.5 29.1 16 28.6 16S27.6 16.5 27.6 17V19.4H25.2V17C25.2 16.5 24.8 16 24.2 16S23.2 16.5 23.2 17V19.4H23C21 19.4 19.3 21.1 19.3 23.1V23.3H17C16.5 23.3 16 23.8 16 24.3 16 24.9 16.5 25.3 17 25.3H19.4V27.7H17C16.5 27.7 16 28.2 16 28.7 16 29.3 16.5 29.7 17 29.7H19.4V32.1H17C16.5 32.1 16 32.6 16 33.1 16 33.7 16.5 34.1 17 34.1H19.4V36.5H17C16.5 36.5 16 36.9 16 37.5 16 38 16.5 38.5 17 38.5H19.4V40.9H17C16.5 40.9 16 41.4 16 41.9 16 42.5 16.5 42.9 17 42.9H19.4V43C19.4 45 21.1 46.7 23.1 46.7H23.3V49.1C23.3 49.7 23.7 50.1 24.3 50.1S25.3 49.7 25.3 49.1V46.7H27.7V49.1C27.7 49.7 28.2 50.1 28.7 50.1S29.7 49.7 29.7 49.1V46.7H32V49.1C32 49.7 32.5 50.1 33 50.1S34 49.7 34 49.1V46.7H36.4V49.1C36.4 49.7 36.8 50.1 37.4 50.1 37.9 50.1 38.4 49.7 38.4 49.1V46.7H40.8V49.1C40.8 49.7 41.3 50.1 41.8 50.1 42.4 50.1 42.8 49.7 42.8 49.1V46.7H43C45 46.7 46.7 45 46.7 43V42.8H49C49.6 42.8 50 42.4 50 41.8 50 41.3 49.6 40.8 49 40.8H46.6V38.4H49C49.6 38.4 50 37.9 50 37.4 50 36.8 49.6 36.4 49 36.4H46.6V34H49C49.6 34 50 33.6 50 33 50 32.5 49.6 32 49 32H46.6V29.6H49C49.6 29.6 50 29.2 50 28.6 50 28.1 49.6 27.6 49 27.6H46.6V25.2H49zM42.4 39.6C42.4 41.1 41.2 42.4 39.6 42.4H26.4C24.9 42.4 23.6 41.2 23.6 39.6V26.5C23.6 25 24.8 23.7 26.4 23.7H39.6C41.1 23.7 42.4 24.9 42.4 26.5z" fill="#070fa2" data-fill-palette-color="accent"></path></g></g></svg></g></svg></g></svg></g></svg></g><defs></defs></svg><rect width="395.52" height="144.52207014959006" fill="none" stroke="none" visibility="hidden"></rect></g></svg></g></svg>