<?xml version="1.0" encoding="UTF-8"?>
<!DOCTYPE svg PUBLIC "-//W3C//DTD SVG 1.1//EN" "http://www.w3.org/Graphics/SVG/1.1/DTD/svg11.dtd">
<svg xmlns="http://www.w3.org/2000/svg" xmlns:xlink="http://www.w3.org/1999/xlink" version="1.1" width="366px" height="441px" viewBox="-0.5 -0.5 366 441"><defs/><g><ellipse cx="120" cy="40" rx="40" ry="40" fill="rgb(255, 255, 255)" stroke="rgb(0, 0, 0)" pointer-events="all"/><ellipse cx="40" cy="160" rx="40" ry="40" fill="rgb(255, 255, 255)" stroke="rgb(0, 0, 0)" pointer-events="all"/><ellipse cx="200" cy="160" rx="40" ry="40" fill="rgb(255, 255, 255)" stroke="rgb(0, 0, 0)" pointer-events="all"/><path d="M 40 120 L 91.72 68.28" fill="none" stroke="rgb(0, 0, 0)" stroke-width="2" stroke-miterlimit="10" pointer-events="stroke"/><path d="M 148.28 68.28 L 200 120" fill="none" stroke="rgb(0, 0, 0)" stroke-width="2" stroke-miterlimit="10" pointer-events="stroke"/><path d="M 272.86 118.37 C 273.77 114.99 276.04 112.17 279.12 110.6 C 282.19 109.04 285.78 108.88 288.98 110.17 C 293.63 112.47 297.24 116.51 299.05 121.45 C 307.36 97.41 319.99 75.16 336.31 55.83 C 340.94 51.55 347.41 50 353.43 51.73 C 354.97 51.98 356.27 53.01 356.89 54.47 C 357.5 55.93 357.34 57.6 356.45 58.91 C 334.27 84.4 317.78 114.48 308.11 147.08 C 302.41 150 295.68 150 289.98 147.08 C 285.68 137.34 279.9 128.35 272.86 120.42 C 272.5 119.79 272.5 119.01 272.86 118.37 Z" fill="#00ff00" stroke="rgb(0, 0, 0)" stroke-miterlimit="10" pointer-events="all"/><ellipse cx="120" cy="400" rx="40" ry="40" fill="rgb(255, 255, 255)" stroke="rgb(0, 0, 0)" pointer-events="all"/><ellipse cx="40" cy="280" rx="40" ry="40" fill="rgb(255, 255, 255)" stroke="rgb(0, 0, 0)" pointer-events="all"/><ellipse cx="200" cy="280" rx="40" ry="40" fill="rgb(255, 255, 255)" stroke="rgb(0, 0, 0)" pointer-events="all"/><path d="M 40 320 L 91.72 371.72" fill="none" stroke="rgb(0, 0, 0)" stroke-width="2" stroke-miterlimit="10" pointer-events="stroke"/><path d="M 148.28 371.72 L 200 320" fill="none" stroke="rgb(0, 0, 0)" stroke-width="2" stroke-miterlimit="10" pointer-events="stroke"/><path d="M 265 300 L 294.17 300 L 315 329.59 L 335.83 300 L 365 300 L 329.58 350 L 365 400 L 335.83 400 L 315 370.41 L 294.17 400 L 265 400 L 298.33 350 Z" fill="#ff0000" stroke="rgb(0, 0, 0)" stroke-miterlimit="10" pointer-events="all"/></g></svg>