<svg xmlns="http://www.w3.org/2000/svg" version="1.1" xmlns:xlink="http://www.w3.org/1999/xlink" xmlns:svgjs="http://svgjs.dev/svgjs" width="128" height="128" viewBox="0 0 128 128"><g transform="matrix(0.8046875,0,0,0.8046875,11.647896449999983,11.647896449999983)"><svg viewBox="0 0 60 60" data-background-color="#ffffff" preserveAspectRatio="xMidYMid meet" height="128" width="128" xmlns="http://www.w3.org/2000/svg" xmlns:xlink="http://www.w3.org/1999/xlink"><g id="tight-bounds" transform="matrix(1,0,0,1,0.49637100000001055,0.49637100000001055)"><svg viewBox="0 0 59.00725799999999 59.00725799999999" height="59.00725799999999" width="59.00725799999999"><g><svg viewBox="0 0 59.00725799999999 59.00725799999999" height="59.00725799999999" width="59.00725799999999"><g><svg viewBox="0 0 59.00725799999999 59.00725799999999" height="59.00725799999999" width="59.00725799999999"><g><svg viewBox="0 0 59.00725799999999 59.00725799999999" height="59.00725799999999" width="59.00725799999999"><g id="textblocktransform"><svg viewBox="0 0 59.00725799999999 59.00725799999999" height="59.00725799999999" width="59.00725799999999" id="textblock"><g><svg viewBox="0 0 59.00725799999999 59.00725799999999" height="59.00725799999999" width="59.00725799999999"><g><svg viewBox="0 0 59.00725799999999 59.00725799999999" height="59.00725799999999" width="59.00725799999999"><g><svg xmlns="http://www.w3.org/2000/svg" xmlns:xlink="http://www.w3.org/1999/xlink" version="1.1" x="0" y="0" viewBox="1 1 64 64" enable-background="new 0 0 66 66" xml:space="preserve" height="59.00725799999999" width="59.00725799999999" class="icon-icon-0" data-fill-palette-color="accent" id="icon-0"><g fill="#070fa2" data-fill-palette-color="accent"><g fill="#070fa2" data-fill-palette-color="accent"><path d="M41.1 8.3V13.8C41.1 14.4 41.5 14.8 42.1 14.8S43.1 14.4 43.1 13.8V8.3C44.7 7.9 45.8 6.4 45.8 4.7 45.8 2.6 44.1 1 42.1 1 40 1 38.4 2.7 38.4 4.7 38.3 6.5 39.5 7.9 41.1 8.3M42.1 3C43.1 3 43.8 3.8 43.8 4.7 43.8 5.7 43 6.4 42.1 6.4 41.1 6.4 40.4 5.6 40.4 4.7 40.3 3.8 41.1 3 42.1 3" fill="#070fa2" data-fill-palette-color="accent"></path></g><g fill="#070fa2" data-fill-palette-color="accent"><path d="M23.9 11.2C25.6 11.2 27 10 27.5 8.5H31.4V13.8C31.4 14.4 31.8 14.8 32.4 14.8S33.4 14.4 33.4 13.8V7.5C33.4 6.9 33 6.5 32.4 6.5H27.5C27.1 4.9 25.6 3.8 23.9 3.8 21.8 3.8 20.2 5.5 20.2 7.5S21.9 11.2 23.9 11.2M23.9 5.7C24.9 5.7 25.6 6.5 25.6 7.4 25.6 8.4 24.8 9.1 23.9 9.1 22.9 9.1 22.2 8.3 22.2 7.4S23 5.7 23.9 5.7" fill="#070fa2" data-fill-palette-color="accent"></path></g><g fill="#070fa2" data-fill-palette-color="accent"><path d="M24.9 57.7V52.2C24.9 51.6 24.5 51.2 23.9 51.2S22.9 51.6 22.9 52.2V57.7C21.3 58.1 20.2 59.6 20.2 61.3 20.2 63.4 21.9 65 23.9 65 26 65 27.6 63.3 27.6 61.3 27.7 59.5 26.5 58.1 24.9 57.7M23.9 63C22.9 63 22.2 62.2 22.2 61.3S23 59.6 23.9 59.6C24.9 59.6 25.6 60.4 25.6 61.3S24.9 63 23.9 63" fill="#070fa2" data-fill-palette-color="accent"></path></g><g fill="#070fa2" data-fill-palette-color="accent"><path d="M42.1 54.8C40.4 54.8 39 56 38.5 57.5H34.6V52.2C34.6 51.6 34.2 51.2 33.6 51.2S32.6 51.6 32.6 52.2V58.5C32.6 59.1 33 59.5 33.6 59.5H38.5C38.9 61.1 40.4 62.2 42.1 62.2 44.2 62.2 45.8 60.5 45.8 58.5S44.1 54.8 42.1 54.8M42.1 60.3C41.1 60.3 40.4 59.5 40.4 58.6 40.4 57.6 41.2 56.9 42.1 56.9 43.1 56.9 43.8 57.7 43.8 58.6S43 60.3 42.1 60.3" fill="#070fa2" data-fill-palette-color="accent"></path></g><g fill="#070fa2" data-fill-palette-color="accent"><path d="M13.8 22.9H8.3C7.9 21.3 6.4 20.2 4.7 20.2 2.6 20.2 1 21.9 1 23.9 1 26 2.7 27.6 4.7 27.6 6.4 27.6 7.8 26.4 8.3 24.9H13.8C14.4 24.9 14.8 24.5 14.8 23.9 14.8 23.4 14.4 22.9 13.8 22.9M4.7 25.7C3.7 25.7 3 24.9 3 24 3 23 3.8 22.3 4.7 22.3 5.7 22.3 6.4 23.1 6.4 24 6.5 24.9 5.7 25.7 4.7 25.7" fill="#070fa2" data-fill-palette-color="accent"></path></g><g fill="#070fa2" data-fill-palette-color="accent"><path d="M13.8 32.5H7.5C6.9 32.5 6.5 32.9 6.5 33.5V38.4C4.9 38.8 3.8 40.3 3.8 42 3.8 44.1 5.5 45.7 7.5 45.7 9.6 45.7 11.2 44 11.2 42 11.2 40.3 10 38.9 8.5 38.4V34.5H13.8C14.4 34.5 14.8 34.1 14.8 33.5 14.8 33 14.4 32.5 13.8 32.5M9.2 42.1C9.2 43.1 8.4 43.8 7.5 43.8 6.5 43.8 5.8 43 5.8 42.1 5.8 41.1 6.6 40.4 7.5 40.4 8.4 40.3 9.2 41.1 9.2 42.1" fill="#070fa2" data-fill-palette-color="accent"></path></g><g fill="#070fa2" data-fill-palette-color="accent"><path d="M61.3 38.3C59.6 38.3 58.2 39.5 57.7 41H52.2C51.6 41 51.2 41.4 51.2 42S51.6 43 52.2 43H57.7C58.1 44.6 59.6 45.7 61.3 45.7 63.4 45.7 65 44 65 42S63.3 38.3 61.3 38.3M61.3 43.8C60.3 43.8 59.6 43 59.6 42.1 59.6 41.1 60.4 40.4 61.3 40.4 62.3 40.4 63 41.2 63 42.1S62.2 43.8 61.3 43.8" fill="#070fa2" data-fill-palette-color="accent"></path></g><g fill="#070fa2" data-fill-palette-color="accent"><path d="M52.2 33.5H58.5C59.1 33.5 59.5 33.1 59.5 32.5V27.6C61.1 27.2 62.2 25.7 62.2 24 62.2 21.9 60.5 20.3 58.5 20.3 56.4 20.3 54.8 22 54.8 24 54.8 25.7 56 27.1 57.5 27.6V31.5H52.2C51.6 31.5 51.2 31.9 51.2 32.5 51.2 33 51.6 33.5 52.2 33.5M56.8 23.9C56.8 22.9 57.6 22.2 58.5 22.2 59.5 22.2 60.2 23 60.2 23.9 60.2 24.9 59.4 25.6 58.5 25.6 57.6 25.7 56.8 24.9 56.8 23.9" fill="#070fa2" data-fill-palette-color="accent"></path></g><g fill="#070fa2" data-fill-palette-color="accent"><path d="M39.6 25.7H26.4C26 25.7 25.6 26 25.6 26.5V39.7C25.6 40.1 25.9 40.5 26.4 40.5H39.6C40 40.5 40.4 40.2 40.4 39.7V26.5C40.4 26 40 25.7 39.6 25.7" fill="#070fa2" data-fill-palette-color="accent"></path></g><g fill="#070fa2" data-fill-palette-color="accent"><path d="M49 25.3C49.6 25.3 50 24.9 50 24.3 50 23.8 49.6 23.3 49 23.3H46.6V23.1C46.6 21.1 44.9 19.4 42.9 19.4H42.7V17C42.7 16.5 42.3 16 41.7 16 41.2 16 40.7 16.5 40.7 17V19.4H38.3V17C38.3 16.5 37.8 16 37.3 16 36.7 16 36.3 16.5 36.3 17V19.4H34V17C34 16.5 33.5 16 33 16S32 16.5 32 17V19.4H29.6V17C29.6 16.5 29.1 16 28.6 16S27.6 16.5 27.6 17V19.4H25.2V17C25.2 16.5 24.8 16 24.2 16S23.2 16.5 23.2 17V19.4H23C21 19.4 19.3 21.1 19.3 23.1V23.3H17C16.5 23.3 16 23.8 16 24.3 16 24.9 16.5 25.3 17 25.3H19.4V27.7H17C16.5 27.7 16 28.2 16 28.7 16 29.3 16.5 29.7 17 29.7H19.4V32.1H17C16.5 32.1 16 32.6 16 33.1 16 33.7 16.5 34.1 17 34.1H19.4V36.5H17C16.5 36.5 16 36.9 16 37.5 16 38 16.5 38.5 17 38.5H19.4V40.9H17C16.5 40.9 16 41.4 16 41.9 16 42.5 16.5 42.9 17 42.9H19.4V43C19.4 45 21.1 46.7 23.1 46.7H23.3V49.1C23.3 49.7 23.7 50.1 24.3 50.1S25.3 49.7 25.3 49.1V46.7H27.7V49.1C27.7 49.7 28.2 50.1 28.7 50.1S29.7 49.7 29.7 49.1V46.7H32V49.1C32 49.7 32.5 50.1 33 50.1S34 49.7 34 49.1V46.7H36.4V49.1C36.4 49.7 36.8 50.1 37.4 50.1 37.9 50.1 38.4 49.7 38.4 49.1V46.7H40.8V49.1C40.8 49.7 41.3 50.1 41.8 50.1 42.4 50.1 42.8 49.7 42.8 49.1V46.7H43C45 46.7 46.7 45 46.7 43V42.8H49C49.6 42.8 50 42.4 50 41.8 50 41.3 49.6 40.8 49 40.8H46.6V38.4H49C49.6 38.4 50 37.9 50 37.4 50 36.8 49.6 36.4 49 36.4H46.6V34H49C49.6 34 50 33.6 50 33 50 32.5 49.6 32 49 32H46.6V29.6H49C49.6 29.6 50 29.2 50 28.6 50 28.1 49.6 27.6 49 27.6H46.6V25.2H49zM42.4 39.6C42.4 41.1 41.2 42.4 39.6 42.4H26.4C24.9 42.4 23.6 41.2 23.6 39.6V26.5C23.6 25 24.8 23.7 26.4 23.7H39.6C41.1 23.7 42.4 24.9 42.4 26.5z" fill="#070fa2" data-fill-palette-color="accent"></path></g></g></svg></g></svg></g></svg></g></svg></g></svg></g></svg></g></svg></g><defs></defs></svg><rect width="59.00725799999999" height="59.00725799999999" fill="none" stroke="none" visibility="hidden"></rect></g></svg></g></svg>